<mxfile host="app.diagrams.net" modified="2024-07-04T02:39:00.111Z" agent="Mozilla/5.0 (Windows NT 10.0; Win64; x64) AppleWebKit/537.36 (KHTML, like Gecko) Chrome/126.0.0.0 Safari/537.36" etag="nOLmHVaBAFMWIi7AXe9x" version="24.6.4" type="github">
  <diagram name="Page-1" id="yLqmsVeNWBvNDN3r8Hz2">
    <mxGraphModel dx="1050" dy="957" grid="0" gridSize="10" guides="1" tooltips="1" connect="1" arrows="1" fold="1" page="0" pageScale="1" pageWidth="1169" pageHeight="827" math="0" shadow="0">
      <root>
        <mxCell id="0" />
        <mxCell id="1" parent="0" />
        <mxCell id="NCMPwycFZFcDx9cTc0LM-1" value="Internet" style="image;aspect=fixed;perimeter=ellipsePerimeter;html=1;align=center;shadow=0;dashed=0;spacingTop=3;image=img/lib/active_directory/internet_cloud.svg;" vertex="1" parent="1">
          <mxGeometry x="177" y="-63" width="50" height="31.5" as="geometry" />
        </mxCell>
        <mxCell id="NCMPwycFZFcDx9cTc0LM-6" value="" style="edgeStyle=orthogonalEdgeStyle;rounded=0;orthogonalLoop=1;jettySize=auto;html=1;endArrow=none;endFill=0;" edge="1" parent="1" source="NCMPwycFZFcDx9cTc0LM-2" target="NCMPwycFZFcDx9cTc0LM-5">
          <mxGeometry relative="1" as="geometry" />
        </mxCell>
        <mxCell id="NCMPwycFZFcDx9cTc0LM-2" value="Firewall" style="image;html=1;image=img/lib/clip_art/networking/Firewall-page1_128x128.png;imageBackground=default;fillStyle=solid;" vertex="1" parent="1">
          <mxGeometry x="181" y="27" width="42" height="46" as="geometry" />
        </mxCell>
        <mxCell id="NCMPwycFZFcDx9cTc0LM-8" style="edgeStyle=orthogonalEdgeStyle;rounded=0;orthogonalLoop=1;jettySize=auto;html=1;endArrow=none;endFill=0;" edge="1" parent="1" source="NCMPwycFZFcDx9cTc0LM-5" target="NCMPwycFZFcDx9cTc0LM-7">
          <mxGeometry relative="1" as="geometry" />
        </mxCell>
        <mxCell id="NCMPwycFZFcDx9cTc0LM-22" style="edgeStyle=orthogonalEdgeStyle;rounded=0;orthogonalLoop=1;jettySize=auto;html=1;endArrow=none;endFill=0;" edge="1" parent="1" source="NCMPwycFZFcDx9cTc0LM-5" target="NCMPwycFZFcDx9cTc0LM-21">
          <mxGeometry relative="1" as="geometry" />
        </mxCell>
        <mxCell id="NCMPwycFZFcDx9cTc0LM-5" value="Router" style="image;html=1;image=img/lib/clip_art/networking/Router_128x128.png;imageBackground=default;fillStyle=solid;" vertex="1" parent="1">
          <mxGeometry x="173" y="129" width="58" height="37" as="geometry" />
        </mxCell>
        <mxCell id="NCMPwycFZFcDx9cTc0LM-10" style="edgeStyle=orthogonalEdgeStyle;rounded=0;orthogonalLoop=1;jettySize=auto;html=1;endArrow=none;endFill=0;" edge="1" parent="1" source="NCMPwycFZFcDx9cTc0LM-7" target="NCMPwycFZFcDx9cTc0LM-9">
          <mxGeometry relative="1" as="geometry" />
        </mxCell>
        <mxCell id="NCMPwycFZFcDx9cTc0LM-7" value="Firewall" style="image;html=1;image=img/lib/clip_art/networking/Firewall-page1_128x128.png;imageBackground=default;fillStyle=solid;" vertex="1" parent="1">
          <mxGeometry x="181" y="212" width="42" height="46" as="geometry" />
        </mxCell>
        <mxCell id="NCMPwycFZFcDx9cTc0LM-12" style="edgeStyle=orthogonalEdgeStyle;rounded=0;orthogonalLoop=1;jettySize=auto;html=1;entryX=1;entryY=0.5;entryDx=0;entryDy=0;endArrow=none;endFill=0;" edge="1" parent="1" source="NCMPwycFZFcDx9cTc0LM-9" target="NCMPwycFZFcDx9cTc0LM-11">
          <mxGeometry relative="1" as="geometry" />
        </mxCell>
        <mxCell id="NCMPwycFZFcDx9cTc0LM-9" value="Switch" style="image;html=1;image=img/lib/clip_art/networking/Switch_128x128.png;imageBackground=default;fillStyle=solid;" vertex="1" parent="1">
          <mxGeometry x="175" y="313" width="54" height="44.49" as="geometry" />
        </mxCell>
        <mxCell id="NCMPwycFZFcDx9cTc0LM-19" style="edgeStyle=orthogonalEdgeStyle;rounded=0;orthogonalLoop=1;jettySize=auto;html=1;endArrow=none;endFill=0;" edge="1" parent="1" source="NCMPwycFZFcDx9cTc0LM-11" target="NCMPwycFZFcDx9cTc0LM-17">
          <mxGeometry relative="1" as="geometry" />
        </mxCell>
        <mxCell id="NCMPwycFZFcDx9cTc0LM-20" style="edgeStyle=orthogonalEdgeStyle;rounded=0;orthogonalLoop=1;jettySize=auto;html=1;endArrow=none;endFill=0;" edge="1" parent="1" source="NCMPwycFZFcDx9cTc0LM-11" target="NCMPwycFZFcDx9cTc0LM-18">
          <mxGeometry relative="1" as="geometry" />
        </mxCell>
        <mxCell id="NCMPwycFZFcDx9cTc0LM-11" value="Wireless access point" style="image;html=1;image=img/lib/clip_art/networking/Wireless_Router_N_128x128.png;imageBackground=default;fillStyle=solid;" vertex="1" parent="1">
          <mxGeometry x="57" y="311.74" width="52" height="47" as="geometry" />
        </mxCell>
        <mxCell id="NCMPwycFZFcDx9cTc0LM-17" value="Device" style="sketch=0;aspect=fixed;pointerEvents=1;shadow=0;dashed=0;html=1;strokeColor=none;labelPosition=center;verticalLabelPosition=bottom;verticalAlign=top;align=center;fillColor=#00188D;shape=mxgraph.azure.laptop" vertex="1" parent="1">
          <mxGeometry x="58" y="231" width="50" height="30" as="geometry" />
        </mxCell>
        <mxCell id="NCMPwycFZFcDx9cTc0LM-18" value="Device" style="html=1;verticalLabelPosition=bottom;align=center;labelBackgroundColor=#ffffff;verticalAlign=top;strokeWidth=2;strokeColor=#0080F0;shadow=0;dashed=0;shape=mxgraph.ios7.icons.smartphone;" vertex="1" parent="1">
          <mxGeometry x="74" y="425" width="18" height="30" as="geometry" />
        </mxCell>
        <mxCell id="NCMPwycFZFcDx9cTc0LM-21" value="Server" style="image;html=1;image=img/lib/clip_art/computers/Server_Tower_128x128.png;imageBackground=default;fillStyle=solid;" vertex="1" parent="1">
          <mxGeometry x="48" y="121.5" width="70" height="52" as="geometry" />
        </mxCell>
        <mxCell id="NCMPwycFZFcDx9cTc0LM-4" value="" style="edgeStyle=orthogonalEdgeStyle;rounded=0;orthogonalLoop=1;jettySize=auto;html=1;endArrow=none;endFill=0;" edge="1" parent="1" source="NCMPwycFZFcDx9cTc0LM-2" target="NCMPwycFZFcDx9cTc0LM-1">
          <mxGeometry relative="1" as="geometry" />
        </mxCell>
        <mxCell id="NCMPwycFZFcDx9cTc0LM-23" value="Device" style="sketch=0;aspect=fixed;pointerEvents=1;shadow=0;dashed=0;html=1;strokeColor=none;labelPosition=center;verticalLabelPosition=bottom;verticalAlign=top;align=center;fillColor=#00188D;shape=mxgraph.azure.laptop" vertex="1" parent="1">
          <mxGeometry x="306" y="231" width="50" height="30" as="geometry" />
        </mxCell>
        <mxCell id="NCMPwycFZFcDx9cTc0LM-24" value="Device" style="html=1;verticalLabelPosition=bottom;align=center;labelBackgroundColor=#ffffff;verticalAlign=top;strokeWidth=2;strokeColor=#0080F0;shadow=0;dashed=0;shape=mxgraph.ios7.icons.smartphone;" vertex="1" parent="1">
          <mxGeometry x="322" y="425" width="18" height="30" as="geometry" />
        </mxCell>
        <mxCell id="NCMPwycFZFcDx9cTc0LM-27" style="edgeStyle=orthogonalEdgeStyle;rounded=0;orthogonalLoop=1;jettySize=auto;html=1;entryX=0;entryY=0.587;entryDx=0;entryDy=0;entryPerimeter=0;" edge="1" parent="1" source="NCMPwycFZFcDx9cTc0LM-9" target="NCMPwycFZFcDx9cTc0LM-24">
          <mxGeometry relative="1" as="geometry" />
        </mxCell>
        <mxCell id="NCMPwycFZFcDx9cTc0LM-28" style="edgeStyle=orthogonalEdgeStyle;rounded=0;orthogonalLoop=1;jettySize=auto;html=1;entryX=0.08;entryY=0.5;entryDx=0;entryDy=0;entryPerimeter=0;" edge="1" parent="1" source="NCMPwycFZFcDx9cTc0LM-9" target="NCMPwycFZFcDx9cTc0LM-23">
          <mxGeometry relative="1" as="geometry">
            <Array as="points">
              <mxPoint x="276" y="335" />
              <mxPoint x="276" y="246" />
            </Array>
          </mxGeometry>
        </mxCell>
      </root>
    </mxGraphModel>
  </diagram>
</mxfile>
